Normalized EMG Linear Envelopes
nRows=124
nColumns=4

endheader
time	 med_gas_r	  soleus_r	 tib_ant_r	
3.14899	  0.024653	  0.027397	  0.013549	
3.22056	  0.022159	  0.025627	  0.013295	
3.29213	  0.020695	  0.024429	  0.013093	
3.3637	  0.020322	  0.023946	  0.012905	
3.43526	  0.020385	  0.023974	  0.012694	
3.50683	  0.020303	  0.024202	  0.012499	
3.5784	  0.020055	  0.024424	  0.012409	
3.64997	  0.020544	  0.024872	  0.012547	
3.72154	  0.023749	  0.026247	  0.012981	
3.7931	  0.031336	  0.028827	  0.013611	
3.86467	  0.041182	  0.031382	  0.014203	
3.93624	  0.046868	  0.031904	  0.014475	
4.00781	  0.044621	  0.030022	  0.014266	
4.07938	  0.038391	  0.027450	  0.013755	
4.15094	  0.034185	  0.025771	  0.013297	
4.22251	  0.033226	  0.025253	  0.012960	
4.29408	  0.032827	  0.025409	  0.012540	
4.36565	  0.030020	  0.025230	  0.011922	
4.43722	  0.023344	  0.023606	  0.011326	
4.50878	  0.014215	  0.020811	  0.011589	
4.58035	  0.009253	  0.019726	  0.014411	
4.65192	  0.021712	  0.025600	  0.021555	
4.72349	  0.067655	  0.044205	  0.031906	
4.79506	  0.147773	  0.075661	  0.039670	
4.86662	  0.228167	  0.107403	  0.039688	
4.93819	  0.267873	  0.124839	  0.034108	
5.00976	  0.270496	  0.130864	  0.028846	
5.08133	  0.273993	  0.139083	  0.026042	
5.1529	  0.301346	  0.154497	  0.024657	
5.22446	  0.345724	  0.172358	  0.024302	
5.29603	  0.384789	  0.187239	  0.024827	
5.3676	  0.403768	  0.198938	  0.025205	
5.43917	  0.407043	  0.208626	  0.024623	
5.51074	  0.402302	  0.214439	  0.023381	
5.5823	  0.387383	  0.214642	  0.022279	
5.65387	  0.358041	  0.207663	  0.021628	
5.72544	  0.319620	  0.194209	  0.021157	
5.79701	  0.285861	  0.180545	  0.020709	
5.86858	  0.264928	  0.172358	  0.020556	
5.94014	  0.257251	  0.170988	  0.021020	
6.01171	  0.263195	  0.174333	  0.022016	
6.08328	  0.274487	  0.173984	  0.022900	
6.15485	  0.274645	  0.159101	  0.023103	
6.22642	  0.261757	  0.131162	  0.022788	
6.29798	  0.247321	  0.105305	  0.022241	
6.36955	  0.236250	  0.091610	  0.021474	
6.44112	  0.228770	  0.086140	  0.020862	
6.51269	  0.226233	  0.081084	  0.020852	
6.58426	  0.226184	  0.074111	  0.021119	
6.65582	  0.226806	  0.067843	  0.021060	
6.72739	  0.233491	  0.065192	  0.020687	
6.79896	  0.252091	  0.067703	  0.020450	
6.87053	  0.279891	  0.076720	  0.020609	
6.9421	  0.304353	  0.091572	  0.021187	
7.01366	  0.311909	  0.106599	  0.022350	
7.08523	  0.301525	  0.115360	  0.024345	
7.1568	  0.284788	  0.116538	  0.026800	
7.22837	  0.272184	  0.110541	  0.028558	
7.29994	  0.264963	  0.096800	  0.028906	
7.3715	  0.257786	  0.079987	  0.028656	
7.44307	  0.247713	  0.070131	  0.029098	
7.51464	  0.238040	  0.072432	  0.030136	
7.58621	  0.227430	  0.081760	  0.030444	
7.65778	  0.208456	  0.088095	  0.029292	
7.72934	  0.186022	  0.087466	  0.027346	
7.80091	  0.179234	  0.086208	  0.025760	
7.87248	  0.199544	  0.090897	  0.025443	
7.94405	  0.238346	  0.098266	  0.026899	
8.01562	  0.276092	  0.101323	  0.029593	
8.08718	  0.300327	  0.101410	  0.032051	
8.15875	  0.312205	  0.105355	  0.033475	
8.23032	  0.314678	  0.113202	  0.034218	
8.30189	  0.306114	  0.118278	  0.034529	
8.37346	  0.288916	  0.116971	  0.034127	
8.44502	  0.272316	  0.112532	  0.032985	
8.51659	  0.266161	  0.109899	  0.031822	
8.58816	  0.275594	  0.108272	  0.031372	
8.65973	  0.297421	  0.103569	  0.031349	
8.7313	  0.323296	  0.096729	  0.030970	
8.80286	  0.345717	  0.092101	  0.030229	
8.87443	  0.358065	  0.092172	  0.029784	
8.946	  0.356570	  0.097180	  0.029982	
9.01757	  0.344304	  0.104104	  0.030419	
9.08914	  0.329241	  0.108632	  0.030279	
9.1607	  0.319791	  0.111332	  0.029227	
9.23227	  0.321197	  0.115461	  0.027876	
9.30384	  0.332098	  0.120294	  0.026922	
9.37541	  0.344837	  0.123418	  0.026496	
9.44698	  0.352804	  0.124730	  0.026849	
9.51854	  0.353997	  0.125534	  0.028304	
9.59011	  0.344776	  0.126914	  0.030038	
9.66168	  0.322298	  0.128117	  0.030575	
9.73325	  0.297395	  0.127173	  0.029709	
9.80482	  0.289620	  0.123470	  0.028568	
9.87638	  0.302713	  0.119120	  0.028040	
9.94795	  0.316828	  0.116784	  0.028034	
10.0195	  0.310902	  0.114663	  0.027997	
10.0911	  0.281490	  0.107084	  0.027914	
10.1627	  0.236270	  0.091477	  0.029246	
10.2342	  0.188244	  0.073067	  0.035079	
10.3058	  0.156609	  0.060953	  0.047590	
10.3774	  0.150084	  0.058354	  0.062700	
10.4489	  0.158714	  0.061088	  0.069660	
10.5205	  0.168924	  0.064258	  0.061834	
10.5921	  0.168652	  0.064661	  0.045074	
10.6636	  0.151461	  0.061137	  0.030528	
10.7352	  0.123648	  0.054929	  0.025377	
10.8068	  0.095910	  0.047713	  0.033118	
10.8783	  0.076387	  0.041578	  0.055004	
10.9499	  0.069576	  0.039276	  0.087798	
11.0215	  0.073383	  0.041682	  0.122353	
11.093	  0.080307	  0.046261	  0.146684	
11.1646	  0.083613	  0.049290	  0.153277	
11.2362	  0.082532	  0.049161	  0.145412	
11.3077	  0.077854	  0.046407	  0.134178	
11.3793	  0.068291	  0.042504	  0.126649	
11.4509	  0.055690	  0.039495	  0.122954	
11.5224	  0.043936	  0.038240	  0.124837	
11.594	  0.034430	  0.037477	  0.134149	
11.6656	  0.027869	  0.035854	  0.146818	
11.7372	  0.025078	  0.033851	  0.157741	
11.8087	  0.026168	  0.033289	  0.161915	
11.8803	  0.031057	  0.035506	  0.151991	
11.9519	  0.038645	  0.039977	  0.128165	
